<svg xmlns="http://www.w3.org/2000/svg" width="412" height="214" viewBox="0 0 412 214" role="img">
  <style>
    .m { font-family: ui-monospace,SFMono-Regular,"SF Mono",Menlo,Consolas,"DejaVu Sans Mono",monospace; }
    .dim { fill: #61798A; }
    .txt { fill: #16232D; }
    .key { fill: #0B6E88; }
    .num { fill: #B45309; }
    .str { fill: #1F6E3C; }
    .acc { fill: #B45309; }
    @keyframes blink { 0%, 49% { opacity: 1 } 50%, 100% { opacity: 0 } }
    @keyframes pulse { 0%, 100% { opacity: 1 } 50% { opacity: 0.25 } }
    .caret { animation: blink 1.06s step-end infinite; }
    .pulse { animation: pulse 2s ease-in-out infinite; }
    @media (prefers-reduced-motion: reduce) { .caret, .pulse { animation: none } }
  </style>
  <rect x="0.5" y="0.5" width="411" height="213" rx="7" fill="#FFFFFF" stroke="#D7DFE5"/>
  <path d="M0.5 7.5a7 7 0 0 1 7-7h397a7 7 0 0 1 7 7v23H0.5z" fill="#F2F5F7"/>
  
  <line x1="0.5" y1="30.5" x2="411.5" y2="30.5" stroke="#D7DFE5"/>
  <text class="m" x="12" y="20" font-size="11" letter-spacing="0.4">
    <tspan class="acc" font-weight="700">GET</tspan><tspan class="dim" dx="6">/api/languages</tspan>
  </text>
  
  <rect x="336" y="8" width="64" height="15" rx="7.5" fill="#E4F4EA"/>
  <text class="m" x="368" y="19" font-size="10" font-weight="700" fill="#12703F" text-anchor="middle">200 OK</text>
  <text class="m dim" x="326" y="20" font-size="10" text-anchor="end">content-type</text>
    <rect x="18.0" y="52" width="346.6" height="9" rx="2" fill="#3178C6"/><rect x="366.1" y="52" width="21.6" height="9" rx="2" fill="#F1E05A"/><rect x="389.1" y="52" width="1.6" height="9" rx="2" fill="#3572A5"/><rect x="392.2" y="52" width="1.0" height="9" rx="2" fill="#89E051"/>
    
    <circle cx="22" cy="91.25" r="4.5" fill="#3178C6"/>
    <text class="m txt" x="35" y="95.25" font-size="12.5">TypeScript</text>
    <rect x="236" y="87.25" width="96" height="6" rx="3" fill="#E8EDF1"/>
    <rect x="236" y="87.25" width="88.9" height="6" rx="3" fill="#3178C6"/>
    <text class="m num" x="394" y="95.25" font-size="12" text-anchor="end">92.6%</text>
    <circle cx="22" cy="121.75" r="4.5" fill="#F1E05A"/>
    <text class="m txt" x="35" y="125.75" font-size="12.5">JavaScript</text>
    <rect x="236" y="117.75" width="96" height="6" rx="3" fill="#E8EDF1"/>
    <rect x="236" y="117.75" width="5.9" height="6" rx="3" fill="#F1E05A"/>
    <text class="m num" x="394" y="125.75" font-size="12" text-anchor="end">6.1%</text>
    <circle cx="22" cy="152.25" r="4.5" fill="#3572A5"/>
    <text class="m txt" x="35" y="156.25" font-size="12.5">Python</text>
    <rect x="236" y="148.25" width="96" height="6" rx="3" fill="#E8EDF1"/>
    <rect x="236" y="148.25" width="1.5" height="6" rx="3" fill="#3572A5"/>
    <text class="m num" x="394" y="156.25" font-size="12" text-anchor="end">0.8%</text>
    <circle cx="22" cy="182.75" r="4.5" fill="#89E051"/>
    <text class="m txt" x="35" y="186.75" font-size="12.5">Shell</text>
    <rect x="236" y="178.75" width="96" height="6" rx="3" fill="#E8EDF1"/>
    <rect x="236" y="178.75" width="1.5" height="6" rx="3" fill="#89E051"/>
    <text class="m num" x="394" y="186.75" font-size="12" text-anchor="end">0.5%</text></svg>