<svg xmlns="http://www.w3.org/2000/svg" width="412" height="132" viewBox="0 0 412 132" role="img">
  <style>
    .m { font-family: ui-monospace,SFMono-Regular,"SF Mono",Menlo,Consolas,"DejaVu Sans Mono",monospace; }
    .dim { fill: #5C7080; }
    .txt { fill: #C6D2DC; }
    .key { fill: #4FC3D9; }
    .num { fill: #F0A02B; }
    .str { fill: #8FD98F; }
    .acc { fill: #F0A02B; }
    @keyframes blink { 0%, 49% { opacity: 1 } 50%, 100% { opacity: 0 } }
    .caret { animation: blink 1.06s step-end infinite; }
    @media (prefers-reduced-motion: reduce) { .caret { animation: none } }
  </style>
  <rect x="0.5" y="0.5" width="411" height="131" rx="7" fill="#0F161D" stroke="#22303C"/>
  <path d="M0.5 7.5a7 7 0 0 1 7-7h397a7 7 0 0 1 7 7v23H0.5z" fill="#141E28"/>
  <line x1="0.5" y1="30.5" x2="411.5" y2="30.5" stroke="#22303C"/>
  <text class="m" x="12" y="20" font-size="11" letter-spacing="0.4">
    <tspan class="acc" font-weight="700">GET</tspan><tspan class="dim" dx="6">/ci-validation</tspan>
  </text>
  <rect x="336" y="8" width="64" height="15" rx="7.5" fill="#12281D"/>
  <text class="m" x="368" y="19" font-size="10" font-weight="700" fill="#4FD68A" text-anchor="middle">200 OK</text>
  
    <text class="m acc" x="18" y="62" font-size="15" font-weight="700">ci-validation</text>
    <text class="m dim" x="18" y="84" font-size="11.5">Uruguayan national ID validation API</text>
    <circle cx="23" cy="115" r="4.5" fill="#3178C6"/>
    <text class="m txt" x="36" y="119" font-size="11.5">TypeScript</text>
    <path d="M8 .25a.75.75 0 0 1 .673.418l1.882 3.815 4.21.612a.75.75 0 0 1 .416 1.279l-3.046 2.97.719 4.192a.75.75 0 0 1-1.088.791L8 12.347l-3.766 1.98a.75.75 0 0 1-1.088-.79l.72-4.194L.818 6.374a.75.75 0 0 1 .416-1.28l4.21-.611L7.327.668A.75.75 0 0 1 8 .25Z" fill="#5C7080" transform="translate(168 110) scale(0.75)"/>
    <text class="m dim" x="186" y="119" font-size="11.5">5</text>
    <path d="M5 5.372v.878c0 .414.336.75.75.75h4.5a.75.75 0 0 0 .75-.75v-.878a2.25 2.25 0 1 1 1.5 0v.878a2.25 2.25 0 0 1-2.25 2.25h-1.5v2.128a2.251 2.251 0 1 1-1.5 0V8.5h-1.5A2.25 2.25 0 0 1 3.5 6.25v-.878a2.25 2.25 0 1 1 1.5 0ZM5 3.25a.75.75 0 1 0-1.5 0 .75.75 0 0 0 1.5 0Zm6.75.75a.75.75 0 1 0 0-1.5.75.75 0 0 0 0 1.5Zm-3 8.75a.75.75 0 1 0-1.5 0 .75.75 0 0 0 1.5 0Z" fill="#5C7080" transform="translate(218 110) scale(0.75)"/>
    <text class="m dim" x="236" y="119" font-size="11.5">0</text></svg>