<svg xmlns="http://www.w3.org/2000/svg" width="412" height="152" viewBox="0 0 412 152" role="img">
  <style>
    .m { font-family: ui-monospace,SFMono-Regular,"SF Mono",Menlo,Consolas,"DejaVu Sans Mono",monospace; }
    .dim { fill: #5C7080; }
    .txt { fill: #C6D2DC; }
    .key { fill: #4FC3D9; }
    .num { fill: #F0A02B; }
    .str { fill: #8FD98F; }
    .acc { fill: #F0A02B; }
    @keyframes blink { 0%, 49% { opacity: 1 } 50%, 100% { opacity: 0 } }
    @keyframes pulse { 0%, 100% { opacity: 1 } 50% { opacity: 0.25 } }
    .caret { animation: blink 1.06s step-end infinite; }
    .pulse { animation: pulse 2s ease-in-out infinite; }
    @media (prefers-reduced-motion: reduce) { .caret, .pulse { animation: none } }
  </style>
  <rect x="0.5" y="0.5" width="411" height="151" rx="7" fill="#0F161D" stroke="#22303C"/>
  <path d="M0.5 7.5a7 7 0 0 1 7-7h397a7 7 0 0 1 7 7v23H0.5z" fill="#141E28"/>
  <rect x="0.5" y="30" width="3" height="121" fill="#F0A02B"/>
  <line x1="0.5" y1="30.5" x2="411.5" y2="30.5" stroke="#22303C"/>
  <text class="m" x="12" y="20" font-size="11" letter-spacing="0.4">
    <tspan class="acc" font-weight="700">GET</tspan><tspan class="dim" dx="6">checkleaked.cc</tspan>
  </text>
  
  <rect x="336" y="8" width="64" height="15" rx="7.5" fill="#12281D"/>
  <text class="m" x="368" y="19" font-size="10" font-weight="700" fill="#4FD68A" text-anchor="middle">200 OK</text>
  <text class="m dim" x="326" y="20" font-size="10" text-anchor="end">182ms</text>
    <text class="m acc" x="20" y="60" font-size="17" font-weight="700">CheckLeaked</text>
    <circle class="pulse" cx="131.9" cy="55" r="4" fill="#4FD68A"/>
    <text class="m txt" x="20" y="84" font-size="12">Breach search across billions of records</text>
    
    <rect x="20" y="118" width="49.5" height="19" rx="4" fill="#141E28" stroke="#22303C"/>
    <text class="m dim" x="44.8" y="131" font-size="10.5" text-anchor="middle">osint</text>
    <rect x="75.5" y="118" width="92.1" height="19" rx="4" fill="#141E28" stroke="#22303C"/>
    <text class="m dim" x="121.5" y="131" font-size="10.5" text-anchor="middle">breach-data</text>
    <rect x="173.6" y="118" width="35.3" height="19" rx="4" fill="#141E28" stroke="#22303C"/>
    <text class="m dim" x="191.3" y="131" font-size="10.5" text-anchor="middle">api</text></svg>