<svg xmlns="http://www.w3.org/2000/svg" width="412" height="152" viewBox="0 0 412 152" role="img">
  <style>
    .m { font-family: ui-monospace,SFMono-Regular,"SF Mono",Menlo,Consolas,"DejaVu Sans Mono",monospace; }
    .dim { fill: #61798A; }
    .txt { fill: #16232D; }
    .key { fill: #0B6E88; }
    .num { fill: #B45309; }
    .str { fill: #1F6E3C; }
    .acc { fill: #B45309; }
    @keyframes blink { 0%, 49% { opacity: 1 } 50%, 100% { opacity: 0 } }
    @keyframes pulse { 0%, 100% { opacity: 1 } 50% { opacity: 0.25 } }
    .caret { animation: blink 1.06s step-end infinite; }
    .pulse { animation: pulse 2s ease-in-out infinite; }
    @media (prefers-reduced-motion: reduce) { .caret, .pulse { animation: none } }
  </style>
  <rect x="0.5" y="0.5" width="411" height="151" rx="7" fill="#FFFFFF" stroke="#D7DFE5"/>
  <path d="M0.5 7.5a7 7 0 0 1 7-7h397a7 7 0 0 1 7 7v23H0.5z" fill="#F2F5F7"/>
  <rect x="0.5" y="30" width="3" height="121" fill="#B45309"/>
  <line x1="0.5" y1="30.5" x2="411.5" y2="30.5" stroke="#D7DFE5"/>
  <text class="m" x="12" y="20" font-size="11" letter-spacing="0.4">
    <tspan class="acc" font-weight="700">GET</tspan><tspan class="dim" dx="6">whatsapp.checkleaked.cc</tspan>
  </text>
  
  <rect x="336" y="8" width="64" height="15" rx="7.5" fill="#E4F4EA"/>
  <text class="m" x="368" y="19" font-size="10" font-weight="700" fill="#12703F" text-anchor="middle">200 OK</text>
  <text class="m dim" x="326" y="20" font-size="10" text-anchor="end">146ms</text>
    <text class="m acc" x="20" y="60" font-size="17" font-weight="700">WhatsApp OSINT</text>
    <circle class="pulse" cx="158.60000000000002" cy="55" r="4" fill="#12703F"/>
    <text class="m txt" x="20" y="84" font-size="12">Profile picture &amp; number lookup, no login</text>
    
    <rect x="20" y="118" width="49.5" height="19" rx="4" fill="#F2F5F7" stroke="#D7DFE5"/>
    <text class="m dim" x="44.8" y="131" font-size="10.5" text-anchor="middle">osint</text>
    <rect x="75.5" y="118" width="70.8" height="19" rx="4" fill="#F2F5F7" stroke="#D7DFE5"/>
    <text class="m dim" x="110.9" y="131" font-size="10.5" text-anchor="middle">whatsapp</text>
    <rect x="152.3" y="118" width="42.4" height="19" rx="4" fill="#F2F5F7" stroke="#D7DFE5"/>
    <text class="m dim" x="173.5" y="131" font-size="10.5" text-anchor="middle">free</text></svg>