<svg xmlns="http://www.w3.org/2000/svg" width="412" height="214" viewBox="0 0 412 214" role="img">
  <style>
    .m { font-family: ui-monospace,SFMono-Regular,"SF Mono",Menlo,Consolas,"DejaVu Sans Mono",monospace; }
    .dim { fill: #5C7080; }
    .txt { fill: #C6D2DC; }
    .key { fill: #4FC3D9; }
    .num { fill: #F0A02B; }
    .str { fill: #8FD98F; }
    .acc { fill: #F0A02B; }
    @keyframes blink { 0%, 49% { opacity: 1 } 50%, 100% { opacity: 0 } }
    .caret { animation: blink 1.06s step-end infinite; }
    @media (prefers-reduced-motion: reduce) { .caret { animation: none } }
  </style>
  <rect x="0.5" y="0.5" width="411" height="213" rx="7" fill="#0F161D" stroke="#22303C"/>
  <path d="M0.5 7.5a7 7 0 0 1 7-7h397a7 7 0 0 1 7 7v23H0.5z" fill="#141E28"/>
  <line x1="0.5" y1="30.5" x2="411.5" y2="30.5" stroke="#22303C"/>
  <text class="m" x="12" y="20" font-size="11" letter-spacing="0.4">
    <tspan class="acc" font-weight="700">GET</tspan><tspan class="dim" dx="6">/api/stats</tspan>
  </text>
  <rect x="336" y="8" width="64" height="15" rx="7.5" fill="#12281D"/>
  <text class="m" x="368" y="19" font-size="10" font-weight="700" fill="#4FD68A" text-anchor="middle">200 OK</text>
  <text class="m dim" x="326" y="20" font-size="10" text-anchor="end">41ms</text>
    <text class="m dim" x="18" y="57" font-size="11">1</text>
    <text class="m dim" x="30" y="57" font-size="12.5">{</text>
    
    <text class="m dim" x="18" y="78" font-size="11">2</text>
    <text class="m" x="30" y="78" font-size="12.5">
      <tspan class="key">"repos"</tspan><tspan class="dim">:</tspan><tspan class="num" x="148">71</tspan><tspan class="dim">,</tspan>
    </text>
    <text class="m dim" x="18" y="99" font-size="11">3</text>
    <text class="m" x="30" y="99" font-size="12.5">
      <tspan class="key">"stars"</tspan><tspan class="dim">:</tspan><tspan class="num" x="148">46</tspan><tspan class="dim">,</tspan>
    </text>
    <text class="m dim" x="18" y="120" font-size="11">4</text>
    <text class="m" x="30" y="120" font-size="12.5">
      <tspan class="key">"forks"</tspan><tspan class="dim">:</tspan><tspan class="num" x="148">13</tspan><tspan class="dim">,</tspan>
    </text>
    <text class="m dim" x="18" y="141" font-size="11">5</text>
    <text class="m" x="30" y="141" font-size="12.5">
      <tspan class="key">"followers"</tspan><tspan class="dim">:</tspan><tspan class="num" x="148">11</tspan><tspan class="dim">,</tspan>
    </text>
    <text class="m dim" x="18" y="162" font-size="11">6</text>
    <text class="m" x="30" y="162" font-size="12.5">
      <tspan class="key">"coding_since"</tspan><tspan class="dim">:</tspan><tspan class="str" x="148">&quot;2019-04-25&quot;</tspan><tspan class="dim"></tspan>
    </text>
    <text class="m dim" x="18" y="183" font-size="11">7</text>
    <text class="m dim" x="30" y="183" font-size="12.5">}</text></svg>